:SAMPLES-PER-SECOND 30
:FULLY-SPECIFIED
:DEGREES
465
root  -65.8931 34.8564 21.4047 -177.612 27.6088 178.997
RightUpLeg  -0.418501 -20.738 -4.96555
RightLeg  9.6295 -11.3092 -1.16611
RightFoot  0.576899 0.00157311 0.145502
RightToes  -23.1847 -0.096238 -0.201922
Spine  -3.13525 2.94963 2.29089
Spine1  -6.15617 6.18458 5.14492
HEad  -35.3307 -10.8879 -1.25087
LeftShoulder1  -1.94126e-019 -3.10601e-018 -2.51263e-017
LeftArm  -19.1929 35.7326 -80.0623
LeftForeArm  20.6195 -25.0678 -4.24095
LeftHand  -0.351204 0.617277 8.54983
RightShoulder  -4.96962e-017 0 -2.36833e-017
RightArm  -12.1589 -21.7592 76.9173
RightForeArm  60.4752 11.876 1.47856
RightHand  -0.354685 -0.0800908 -7.78925
LeftUpLeg  -8.73565 1.01351 8.12198
LeftLeg  10.571 7.97318 0.958655
LeftFoot  -3.95511 -0.020267 -0.425431
LeftToes  -47.3434 2.32378e-006 -5.43956e-008
466
root  -65.2916 34.837 21.6893 -177.372 29.4675 178.991
RightUpLeg  -0.351624 -20.1229 -3.94289
RightLeg  8.61943 -9.71224 -0.831409
RightFoot  -0.228774 -0.00589981 0.29644
RightToes  -22.0842 -0.0996522 -0.206016
Spine  -3.42001 2.99739 2.54345
Spine1  -6.66491 6.35068 5.66232
HEad  -38.4722 -7.94987 -0.756918
LeftShoulder1  -1.94126e-019 -3.10601e-018 -2.51263e-017
LeftArm  -21.7148 40.1412 -81.3544
LeftForeArm  17.7003 -27.3086 -4.87239
LeftHand  -0.351431 0.465639 8.30636
RightShoulder  -4.96962e-017 0 -2.36833e-017
RightArm  -8.54579 -19.835 77.1989
RightForeArm  57.779 13.4663 1.31179
RightHand  -0.346429 0.20489 -7.24732
LeftUpLeg  -7.66788 6.36737 9.49567
LeftLeg  10.0238 13.1284 1.44469
LeftFoot  -5.58038 -0.065038 -1.17288
LeftToes  -42.3466 2.32378e-006 -5.43956e-008
467
root  -64.7207 34.819 22.0317 -177.112 31.2527 179.451
RightUpLeg  -0.507223 -21.2724 -2.83081
RightLeg  8.51663 -6.59448 -0.554167
RightFoot  -0.747297 -0.00230409 0.323019
RightToes  -23.1762 -0.102599 -0.208362
Spine  -3.36086 2.77185 2.9559
Spine1  -6.48513 5.91778 6.52792
HEad  -43.5224 -5.3385 0.104703
LeftShoulder1  -1.94126e-019 -3.10601e-018 -2.51263e-017
LeftArm  -23.7707 42.7543 -83.2647
LeftForeArm  16.3485 -27.6327 -5.00925
LeftHand  -0.35289 0.155405 7.87521
RightShoulder  -4.96962e-017 0 -2.36833e-017
RightArm  -6.2814 -17.7862 77.2602
RightForeArm  54.6828 16.2738 1.11458
RightHand  -0.360476 0.0777551 -7.70267
LeftUpLeg  -7.26793 10.0894 11.1983
LeftLeg  11.1836 17.5432 2.27153
LeftFoot  -7.06184 -0.139901 -2.10542
LeftToes  -37.2489 2.32378e-006 -5.43956e-008
468
root  -64.1791 34.8076 22.3804 -177.074 32.2828 179.62
RightUpLeg  -0.555784 -21.524 -1.82581
RightLeg  8.56939 -5.12285 -0.435534
RightFoot  -1.53495 -0.0036195 0.361086
RightToes  -23.0499 -0.104095 -0.208519
Spine  -3.06386 2.40247 3.28213
Spine1  -5.8868 5.15607 7.2102
HEad  -49.851 -3.78275 1.05379
LeftShoulder1  -1.94126e-019 -3.10601e-018 -2.51263e-017
LeftArm  -24.8344 42.967 -85.0621
LeftForeArm  16.6657 -26.3896 -4.71208
LeftHand  -0.330288 -0.0797688 7.07561
RightShoulder  -4.96962e-017 0 -2.36833e-017
RightArm  -6.79309 -17.1023 76.7853
RightForeArm  52.0752 22.9602 2.29209
RightHand  -0.433108 0.286397 -8.92636
LeftUpLeg  -7.80709 10.9647 12.2839
LeftLeg  13.9953 20.9325 3.71788
LeftFoot  -8.24387 -0.231612 -3.05148
LeftToes  -30.0081 2.32378e-006 -5.43956e-008
469
root  -63.6886 34.8178 22.6899 -177.231 32.9811 179.47
RightUpLeg  -0.472342 -21.7622 -1.10505
RightLeg  8.44757 -4.31673 -0.357803
RightFoot  -1.9546 -0.00400506 0.362863
RightToes  -23.7206 -0.103156 -0.206043
Spine  -2.65646 2.04273 3.378
Spine1  -5.09992 4.40582 7.41978
HEad  -56.7398 -2.82782 3.52232
LeftShoulder1  -1.94126e-019 -3.10601e-018 -2.51263e-017
LeftArm  -23.0908 42.3819 -85.5491
LeftForeArm  16.1819 -26.768 -4.82784
LeftHand  -0.285824 0.190093 6.41708
RightShoulder  -4.96962e-017 0 -2.36833e-017
RightArm  -7.5817 -16.9354 76.2521
RightForeArm  48.5333 28.9869 3.67552
RightHand  -0.449793 -0.0557691 -9.82953
LeftUpLeg  -8.74046 9.62881 12.398
LeftLeg  17.6653 22.2996 5.39558
LeftFoot  -9.67514 -0.346271 -3.92815
LeftToes  -15.9251 2.32378e-006 -5.43956e-008
470
root  -63.2514 34.8471 22.9421 -177.28 34.091 178.896
RightUpLeg  -0.258284 -21.2228 -0.791377
RightLeg  7.46841 -3.28746 -0.215922
RightFoot  -2.4769 -0.00509538 0.34747
RightToes  -22.5667 -0.0962243 -0.197132
Spine  -2.36524 1.71944 3.30063
Spine1  -4.55674 3.72244 7.28231
HEad  -63.1695 -2.2498 5.79128
LeftShoulder1  -1.94126e-019 -3.10601e-018 -2.51263e-017
LeftArm  -20.5968 41.4761 -85.3946
LeftForeArm  16.8205 -27.8551 -5.04337
LeftHand  -0.27198 0.252218 6.17325
RightShoulder  -4.96962e-017 0 -2.36833e-017
RightArm  -7.76051 -16.8382 75.8172
RightForeArm  45.8307 33.4899 4.82419
RightHand  -0.472479 -0.0749598 -10.3587
LeftUpLeg  -9.69643 8.78078 11.4285
LeftLeg  20.5442 21.1736 6.24511
LeftFoot  -8.53568 -0.257876 -3.29295
LeftToes  -18.9405 2.32378e-006 -5.43956e-008
471
root  -62.8707 34.8895 23.1971 -176.667 35.7689 178.379
RightUpLeg  -1.08959 -22.0645 -0.277084
RightLeg  6.84077 -1.21376 -0.0657631
RightFoot  -2.31482 -0.0067278 0.238241
RightToes  -25.3389 -0.113176 -0.218301
Spine  -2.29495 1.48641 3.34565
Spine1  -4.44086 3.23374 7.38851
HEad  -68.576 -1.22251 7.24614
LeftShoulder1  -1.94126e-019 -3.10601e-018 -2.51263e-017
LeftArm  -19.2726 40.8339 -85.7399
LeftForeArm  18.6668 -29.5876 -5.34604
LeftHand  -0.321211 -0.168599 6.78004
RightShoulder  -4.96962e-017 0 -2.36833e-017
RightArm  -7.28907 -17.2026 74.9375
RightForeArm  44.8409 37.2699 5.82136
RightHand  -0.324835 -1.15934 -8.82832
LeftUpLeg  -11.1653 7.91631 9.82769
LeftLeg  22.7794 17.9916 6.10106
LeftFoot  -6.4471 -0.124758 -2.05328
LeftToes  -23.9354 2.32378e-006 -5.43956e-008
472
root  -62.5269 34.923 23.4078 -176.251 37.532 177.887
RightUpLeg  -1.44609 -22.0202 0.0276377
RightLeg  5.99838 0.643414 0.0270806
RightFoot  -2.28251 -0.00818014 0.148549
RightToes  -28.0917 -0.131004 -0.238487
Spine  -2.21462 1.29588 3.3944
Spine1  -4.30964 2.83166 7.49331
HEad  -73.2273 -0.146257 7.4324
LeftShoulder1  -1.94126e-019 -3.10601e-018 -2.51263e-017
LeftArm  -16.7075 39.4334 -85.2778
LeftForeArm  19.3806 -31.9345 -5.88311
LeftHand  -0.319067 -0.179971 6.72233
RightShoulder  -4.96962e-017 0 -2.36833e-017
RightArm  -7.54923 -17.1609 74.3653
RightForeArm  44.4478 38.1781 6.08326
RightHand  -0.358244 -1.09896 -9.61965
LeftUpLeg  -12.5571 6.66491 7.68329
LeftLeg  24.2542 14.6709 5.42662
LeftFoot  -5.42861 -0.0718765 -1.35445
LeftToes  -26.9582 2.32378e-006 -5.43956e-008
473
root  -62.2312 34.9484 23.707 -175.479 40.2024 177.217
RightUpLeg  -3.05701 -20.8127 0.601162
RightLeg  6.00327 1.92028 0.0788757
RightFoot  -2.49447 -0.010198 0.0802641
RightToes  -30.5534 -0.147751 -0.255794
Spine  -2.22592 1.48648 3.54821
Spine1  -4.32129 3.20852 7.79265
HEad  -77.1214 0.400008 5.83077
LeftShoulder1  -1.94126e-019 -3.10601e-018 -2.51263e-017
LeftArm  -15.0215 37.2456 -85.2038
LeftForeArm  20.341 -33.5116 -6.23523
LeftHand  -0.340914 -0.600809 6.71227
RightShoulder  -4.96962e-017 0 -2.36833e-017
RightArm  -7.86587 -16.6551 73.6511
RightForeArm  43.5826 37.0231 5.82451
RightHand  -0.297431 -1.79424 -9.41829
LeftUpLeg  -14.3032 4.50055 5.27604
LeftLeg  24.2016 13.7321 5.07378
LeftFoot  -4.30453 -0.0421054 -0.958786
LeftToes  -28.5954 2.32378e-006 -5.43956e-008
474
root  -62.0546 34.9703 23.9893 -174.173 42.2288 176.722
RightUpLeg  -5.22196 -20.5917 1.32819
RightLeg  6.20337 3.47425 0.154036
RightFoot  -2.71654 -0.0129904 -0.0107311
RightToes  -31.8723 -0.157024 -0.264766
Spine  -2.41663 1.77524 3.8222
Spine1  -4.66781 3.81037 8.32384
HEad  -79.1409 0.307194 3.55761
LeftShoulder1  -1.94126e-019 -3.10601e-018 -2.51263e-017
LeftArm  -12.4619 34.2863 -85.1085
LeftForeArm  21.4874 -34.8196 -6.51255
LeftHand  -0.336934 -0.682619 6.55255
RightShoulder  -4.96962e-017 0 -2.36833e-017
RightArm  -9.98594 -16.1531 72.9594
RightForeArm  43.8462 33.816 5.00639
RightHand  -0.313152 -1.97608 -10.4392
LeftUpLeg  -17.3188 -1.24449 2.99748
LeftLeg  23.8696 15.479 5.60112
LeftFoot  -3.68649 -0.0348622 -0.921702
LeftToes  -25.4215 2.32378e-006 -5.43956e-008
